<?xml version="1.0" encoding="UTF-8" standalone="no"?>
<!-- Created with Inkscape (http://www.inkscape.org/) -->

<svg
   width="115"
   height="115"
   viewBox="0 0 30.427083 30.427084"
   version="1.1"
   id="svg5"
   inkscape:version="1.1.2 (b8e25be833, 2022-02-05)"
   sodipodi:docname="tmphl6wzui3"
   xmlns:inkscape="http://www.inkscape.org/namespaces/inkscape"
   xmlns:sodipodi="http://sodipodi.sourceforge.net/DTD/sodipodi-0.dtd"
   xmlns="http://www.w3.org/2000/svg"
   xmlns:svg="http://www.w3.org/2000/svg">
  <sodipodi:namedview
     id="namedview7"
     pagecolor="#ffffff"
     bordercolor="#666666"
     borderopacity="1.0"
     inkscape:pageshadow="2"
     inkscape:pageopacity="0.0"
     inkscape:pagecheckerboard="0"
     inkscape:document-units="mm"
     showgrid="false"
     inkscape:zoom="0.29669617"
     inkscape:cx="-57.297673"
     inkscape:cy="144.92941"
     inkscape:window-width="1280"
     inkscape:window-height="705"
     inkscape:window-x="-4"
     inkscape:window-y="-4"
     inkscape:window-maximized="1"
     inkscape:current-layer="layer2"
     units="px" />
  <defs
     id="defs2" />
  <g
     inkscape:groupmode="layer"
     id="layer10"
     inkscape:label="Cart"
     style="display:inline">
    <g
       id="g13512"
       transform="matrix(0.02362094,0,0,0.02362094,11.977999,11.378377)"
       style="fill:#808080;fill-opacity:1">
      <path
         id="XMLID_227_"
         d="m 285,179.999 c 8.284,0 15,-6.716 15,-15 v -70 c 0,-8.284 -6.716,-15 -15,-15 H 248.49 C 242.48,50.508 219.107,27.265 189.554,21.428 187.95,14.872 182.052,10 175,10 167.948,10 162.05,14.873 160.445,21.429 130.892,27.266 107.519,50.509 101.51,80 H 70 V 75 15 C 70,6.716 63.284,0 55,0 H 15 C 6.716,0 0,6.716 0,15 0,23.284 6.716,30 15,30 h 25 v 44.999 20 70 60 c 0,8.284 6.716,15 15,15 h 7.58 c -1.665,4.695 -2.58,9.742 -2.58,15 0,24.813 20.187,45 45,45 24.813,0 45,-20.187 45,-45 0,-5.258 -0.915,-10.305 -2.58,-15 h 34.16 c -1.665,4.695 -2.58,9.742 -2.58,15 0,24.813 20.186,45 45,45 24.814,0 45,-20.187 45,-45 0,-5.258 -0.915,-10.305 -2.58,-15 H 285 c 8.284,0 15,-6.716 15,-15 0,-8.284 -6.716,-15 -15,-15 H 70 v -30 z M 175,50 c 19.555,0 36.227,12.542 42.42,30 H 132.58 C 138.773,62.541 155.445,50 175,50 Z m 95,59.999 v 40 H 70 v -40 z m -150,145 c 0,8.271 -6.729,15 -15,15 -8.271,0 -15,-6.729 -15,-15 0,-8.271 6.729,-15 15,-15 8.271,0 15,6.73 15,15 z m 119,0 c 0,8.271 -6.729,15 -15,15 -8.271,0 -15,-6.729 -15,-15 0,-8.271 6.729,-15 15,-15 8.271,0 15,6.73 15,15 z"
         style="fill:#808080;fill-opacity:1" />
      <g
         id="g13461"
         style="fill:#808080;fill-opacity:1" />
      <g
         id="g13463"
         style="fill:#808080;fill-opacity:1" />
      <g
         id="g13465"
         style="fill:#808080;fill-opacity:1" />
      <g
         id="g13467"
         style="fill:#808080;fill-opacity:1" />
      <g
         id="g13469"
         style="fill:#808080;fill-opacity:1" />
      <g
         id="g13471"
         style="fill:#808080;fill-opacity:1" />
      <g
         id="g13473"
         style="fill:#808080;fill-opacity:1" />
      <g
         id="g13475"
         style="fill:#808080;fill-opacity:1" />
      <g
         id="g13477"
         style="fill:#808080;fill-opacity:1" />
      <g
         id="g13479"
         style="fill:#808080;fill-opacity:1" />
      <g
         id="g13481"
         style="fill:#808080;fill-opacity:1" />
      <g
         id="g13483"
         style="fill:#808080;fill-opacity:1" />
      <g
         id="g13485"
         style="fill:#808080;fill-opacity:1" />
      <g
         id="g13487"
         style="fill:#808080;fill-opacity:1" />
      <g
         id="g13489"
         style="fill:#808080;fill-opacity:1" />
    </g>
  </g>
</svg>
