<?xml version="1.0" encoding="UTF-8" standalone="no"?>
<!-- Created with Inkscape (http://www.inkscape.org/) -->

<svg
   width="115"
   height="115"
   viewBox="0 0 30.427083 30.427084"
   version="1.1"
   id="svg5"
   inkscape:version="1.1.2 (b8e25be833, 2022-02-05)"
   sodipodi:docname="tmpenagjqde"
   xmlns:inkscape="http://www.inkscape.org/namespaces/inkscape"
   xmlns:sodipodi="http://sodipodi.sourceforge.net/DTD/sodipodi-0.dtd"
   xmlns="http://www.w3.org/2000/svg"
   xmlns:svg="http://www.w3.org/2000/svg">
  <sodipodi:namedview
     id="namedview7"
     pagecolor="#ffffff"
     bordercolor="#666666"
     borderopacity="1.0"
     inkscape:pageshadow="2"
     inkscape:pageopacity="0.0"
     inkscape:pagecheckerboard="0"
     inkscape:document-units="mm"
     showgrid="false"
     inkscape:zoom="0.29669617"
     inkscape:cx="-57.297673"
     inkscape:cy="144.92941"
     inkscape:window-width="1280"
     inkscape:window-height="705"
     inkscape:window-x="-4"
     inkscape:window-y="-4"
     inkscape:window-maximized="1"
     inkscape:current-layer="layer2"
     units="px" />
  <defs
     id="defs2" />
  <g
     inkscape:groupmode="layer"
     id="layer11"
     inkscape:label="Search"
     style="display:inline">
    <g
       id="g20938"
       transform="matrix(0.03748587,0,0,0.03748587,12.076359,11.483077)"
       style="fill:#808080;fill-opacity:1">
      <path
         d="M 54.734,9.053 C 39.12,18.067 27.95,32.624 23.284,50.039 c -4.667,17.415 -2.271,35.606 6.743,51.22 12.023,20.823 34.441,33.759 58.508,33.759 7.599,0 15.139,-1.308 22.287,-3.818 l 30.364,52.592 21.65,-12.5 -30.359,-52.583 c 10.255,-8.774 17.638,-20.411 21.207,-33.73 4.666,-17.415 2.27,-35.605 -6.744,-51.22 C 134.918,12.936 112.499,0 88.433,0 76.645,0 64.992,3.13 54.734,9.053 Z m 70.556,37.206 c 5.676,9.831 7.184,21.285 4.246,32.25 -2.938,10.965 -9.971,20.13 -19.802,25.806 -6.462,3.731 -13.793,5.703 -21.199,5.703 -15.163,0 -29.286,-8.146 -36.857,-21.259 C 46.002,78.928 44.494,67.475 47.433,56.509 50.371,45.544 57.404,36.379 67.235,30.702 73.696,26.972 81.027,25 88.433,25 c 15.164,0 29.286,8.146 36.857,21.259 z"
         id="path20885"
         style="fill:#808080;fill-opacity:1" />
      <g
         id="g20887"
         style="fill:#808080;fill-opacity:1" />
      <g
         id="g20889"
         style="fill:#808080;fill-opacity:1" />
      <g
         id="g20891"
         style="fill:#808080;fill-opacity:1" />
      <g
         id="g20893"
         style="fill:#808080;fill-opacity:1" />
      <g
         id="g20895"
         style="fill:#808080;fill-opacity:1" />
      <g
         id="g20897"
         style="fill:#808080;fill-opacity:1" />
      <g
         id="g20899"
         style="fill:#808080;fill-opacity:1" />
      <g
         id="g20901"
         style="fill:#808080;fill-opacity:1" />
      <g
         id="g20903"
         style="fill:#808080;fill-opacity:1" />
      <g
         id="g20905"
         style="fill:#808080;fill-opacity:1" />
      <g
         id="g20907"
         style="fill:#808080;fill-opacity:1" />
      <g
         id="g20909"
         style="fill:#808080;fill-opacity:1" />
      <g
         id="g20911"
         style="fill:#808080;fill-opacity:1" />
      <g
         id="g20913"
         style="fill:#808080;fill-opacity:1" />
      <g
         id="g20915"
         style="fill:#808080;fill-opacity:1" />
    </g>
  </g>
</svg>
