<?xml version="1.0" encoding="UTF-8" standalone="no"?>
<!-- Created with Inkscape (http://www.inkscape.org/) -->

<svg
   width="115"
   height="115"
   viewBox="0 0 30.427083 30.427084"
   version="1.1"
   id="svg5"
   inkscape:version="1.1.2 (b8e25be833, 2022-02-05)"
   sodipodi:docname="tmpegcd1f0p"
   xmlns:inkscape="http://www.inkscape.org/namespaces/inkscape"
   xmlns:sodipodi="http://sodipodi.sourceforge.net/DTD/sodipodi-0.dtd"
   xmlns="http://www.w3.org/2000/svg"
   xmlns:svg="http://www.w3.org/2000/svg">
  <sodipodi:namedview
     id="namedview7"
     pagecolor="#ffffff"
     bordercolor="#666666"
     borderopacity="1.0"
     inkscape:pageshadow="2"
     inkscape:pageopacity="0.0"
     inkscape:pagecheckerboard="0"
     inkscape:document-units="mm"
     showgrid="false"
     inkscape:zoom="0.29669617"
     inkscape:cx="-57.297673"
     inkscape:cy="144.92941"
     inkscape:window-width="1280"
     inkscape:window-height="705"
     inkscape:window-x="-4"
     inkscape:window-y="-4"
     inkscape:window-maximized="1"
     inkscape:current-layer="layer2"
     units="px" />
  <defs
     id="defs2" />
  <g
     inkscape:groupmode="layer"
     id="layer9"
     inkscape:label="Thumbs_Up"
     style="display:inline">
    <path
       style="color:#000000;fill:#808080;fill-opacity:1;stroke-width:1.1159;stroke-linecap:round;stroke-linejoin:round;-inkscape-stroke:none"
       d="m 15.208047,11.763698 a 0.29527895,0.29527895 0 0 0 -0.26808,0.174363 l -1.102821,2.482448 h -0.69527 c -0.48567,0 -0.884871,0.399192 -0.884881,0.884866 v 2.068346 c 10e-6,0.485685 0.399211,0.884877 0.884881,0.884877 h 0.88707 3.325901 c 0.43947,0.0045 0.81898,-0.317408 0.88488,-0.751929 l 0.40756,-2.656806 a 0.29527895,0.29527895 0 0 0 0,-0.0022 c 0.0811,-0.534417 -0.34437,-1.023941 -0.88487,-1.017825 h -1.37309 v -0.884873 c 0,-0.648753 -0.53254,-1.181287 -1.18128,-1.181287 z m 0.13295,0.723588 c 0.2239,0.08347 0.45769,0.202269 0.45769,0.457698 v 1.181284 a 0.29527895,0.29527895 0 0 0 0.29642,0.294241 h 1.67166 a 0.29527895,0.29527895 0 0 0 0.002,0 c 0.18769,-0.0022 0.32458,0.154407 0.29641,0.339993 l -0.40757,2.656805 c -0.0225,0.147769 -0.14698,0.252339 -0.29642,0.250644 a 0.29527895,0.29527895 0 0 0 -0.002,0 h -3.03604 v -2.890008 z m -2.199121,2.523859 h 0.59065 v 2.656806 h -0.59065 c -0.16655,0 -0.29423,-0.127671 -0.29423,-0.29423 v -2.068346 c 0,-0.166549 0.12768,-0.29423 0.29423,-0.29423 z"
       id="path13372" />
  </g>
</svg>
